# xmcd
#
# Track frame offsets:
#	150
#	12736
#	25764
#	39001
#	58593
#	71744
#	87163
#	101193
#	115343
#	129337
#	146613
#	161906
#	176290
#	188172
#	201909
#
# Disc length: 3019 seconds
# Revision: 0
# Processed by: cddbd v1.5.2PL0 Copyright (c) Steve Scherf et al.
# Submitted via: dBpowerAMP V12.0
#
DISCID=cf0bc90f
DTITLE=Darren Percival - A Tribute To Ray Charles
DYEAR=2012
DGENRE=Blues
TTITLE0=Hallelujah, I Love Her So
TTITLE1=I Can'T Stop Loving You
TTITLE2=I Got A Woman
TTITLE3=Georgia On My Mind
TTITLE4=Hit The Road Jack
TTITLE5=Drown In My Own Tears
TTITLE6=Unchain My Heart
TTITLE7=Shake A Tail Feather
TTITLE8=Busted
TTITLE9=Your Cheatin' Heart
TTITLE10=Night Time Is The Right Time
TTITLE11=Ain't That Love
TTITLE12=What Would I Do Without You
TTITLE13=You Don't Know Me
TTITLE14=What'd I Say
EXTD=
EXTT0=
EXTT1=
EXTT2=
EXTT3=
EXTT4=
EXTT5=
EXTT6=
EXTT7=
EXTT8=
EXTT9=
EXTT10=
EXTT11=
EXTT12=
EXTT13=
EXTT14=
PLAYORDER=
